<svg width="auto" height="3600" style="overflow:visible " version="1.1" xmlns="http://www.w3.org/2000/svg">
<style id="stylesheet">text { text-anchor: middle; } rect {  fill: green;   stroke: black;  opacity: 0.1;  stroke-width: 1.5;}</style>
<text x="900" y="560" font-size="7" >Manuel Lorenzo Vega</text>
<text x="900" y="568" font-size="6" >Nacimiento:1999-01-23</text>
<text x="900" y="576" font-size="6" >Madrid,Madrid</text>
<text x="900" y="584" font-size="6" >-3.7344397656591397</text>
<text x="900" y="592" font-size="6" >40.43341788237872</text>
<text x="900" y="600" font-size="6" >595</text>
<text x="900" y="608" font-size="6" >Multimedia:</text>
<text x="900" y="616" font-size="6" >multimedia/image.png</text>
<text x="900" y="624" font-size="6" >multimedia/image_2.png</text>
<text x="900" y="632" font-size="6" >multimedia/video.mp4</text>
<rect x="855" y="550" width="90px" height="87px"></rect>
<text x="450.0" y="420" font-size="7" >Alberto Lorenzo Álvarez</text>
<text x="450.0" y="428" font-size="6" >Nacimiento:1963-01-08</text>
<text x="450.0" y="436" font-size="6" >Oviedo,Asturias</text>
<text x="450.0" y="444" font-size="6" >-5.830170059192873</text>
<text x="450.0" y="452" font-size="6" >43.37530326395324</text>
<text x="450.0" y="460" font-size="6" >208</text>
<text x="450.0" y="468" font-size="6" >Multimedia:</text>
<text x="450.0" y="476" font-size="6" >multimedia/image1.jpg</text>
<rect x="405.0" y="410" width="90px" height="71px"></rect>
<text x="225.0" y="280" font-size="7" >Felipe Lorenzo Mohamed</text>
<text x="225.0" y="288" font-size="6" >Nacimiento:1940-11-17</text>
<text x="225.0" y="296" font-size="6" >La Fuencubierta,Córdoba</text>
<text x="225.0" y="304" font-size="6" >-4.989371610033474</text>
<text x="225.0" y="312" font-size="6" >37.70948700592726</text>
<text x="225.0" y="320" font-size="6" >174</text>
<text x="225.0" y="328" font-size="6" >Multimedia:</text>
<text x="225.0" y="336" font-size="6" >multimedia/image11.jpg</text>
<rect x="180.0" y="270" width="90px" height="71px"></rect>
<text x="112.5" y="140" font-size="7" >Alejandro Lorenzo Badiola</text>
<text x="112.5" y="148" font-size="6" >Nacimiento:1913-03-30</text>
<text x="112.5" y="156" font-size="6" >Medina del Pomar,Burgos</text>
<text x="112.5" y="164" font-size="6" >-3.488908375884684</text>
<text x="112.5" y="172" font-size="6" >42.93894780573726</text>
<text x="112.5" y="180" font-size="6" >585</text>
<text x="112.5" y="188" font-size="6" >Fallecimiento:1978-09-28</text>
<text x="112.5" y="196" font-size="6" >La Bañeza, León</text>
<text x="112.5" y="204" font-size="6" >-5.899418998113955</text>
<text x="112.5" y="212" font-size="6" >42.29872161823146</text>
<text x="112.5" y="220" font-size="6" >779</text>
<text x="112.5" y="228" font-size="6" >Multimedia:</text>
<text x="112.5" y="236" font-size="6" >multimedia/image111.jpg</text>
<rect x="67.5" y="130" width="90px" height="111px"></rect>
<text x="337.5" y="140" font-size="7" >Magdalena Mohamed Molinero</text>
<text x="337.5" y="148" font-size="6" >Nacimiento:1910-05-01</text>
<text x="337.5" y="156" font-size="6" >Ávila,Ávila</text>
<text x="337.5" y="164" font-size="6" >-4.676865556868358</text>
<text x="337.5" y="172" font-size="6" >40.658717640218434</text>
<text x="337.5" y="180" font-size="6" >1137</text>
<text x="337.5" y="188" font-size="6" >Fallecimiento:1959-03-14</text>
<text x="337.5" y="196" font-size="6" >Mingorría, Ávila</text>
<text x="337.5" y="204" font-size="6" >-4.661815132980382</text>
<text x="337.5" y="212" font-size="6" >40.75226696521233</text>
<text x="337.5" y="220" font-size="6" >1034</text>
<text x="337.5" y="228" font-size="6" >Multimedia:</text>
<text x="337.5" y="236" font-size="6" >multimedia/image112.jpg</text>
<rect x="292.5" y="130" width="90px" height="111px"></rect>
<text x="675.0" y="280" font-size="7" >Maricarmen Álvarez Pendragon</text>
<text x="675.0" y="288" font-size="6" >Nacimiento:1942-05-14</text>
<text x="675.0" y="296" font-size="6" >Villalba de la Lampreana,Zamora</text>
<text x="675.0" y="304" font-size="6" >-5.640656849717557</text>
<text x="675.0" y="312" font-size="6" >41.750113515618615</text>
<text x="675.0" y="320" font-size="6" >684</text>
<text x="675.0" y="328" font-size="6" >Multimedia:</text>
<text x="675.0" y="336" font-size="6" >multimedia/image12.jpg</text>
<rect x="630.0" y="270" width="90px" height="71px"></rect>
<text x="562.5" y="140" font-size="7" >Domingo Álvarez Corral</text>
<text x="562.5" y="148" font-size="6" >Nacimiento:1918-08-04</text>
<text x="562.5" y="156" font-size="6" >Cangas del Narcea, Asturias</text>
<text x="562.5" y="164" font-size="6" >-6.544766049031055</text>
<text x="562.5" y="172" font-size="6" >43.178545480806754</text>
<text x="562.5" y="180" font-size="6" >352</text>
<text x="562.5" y="188" font-size="6" >Fallecimiento:1988-11-25</text>
<text x="562.5" y="196" font-size="6" >Astorga,León</text>
<text x="562.5" y="204" font-size="6" >-6.03849541081205</text>
<text x="562.5" y="212" font-size="6" >42.46388116123176</text>
<text x="562.5" y="220" font-size="6" >871</text>
<text x="562.5" y="228" font-size="6" >Multimedia:</text>
<text x="562.5" y="236" font-size="6" >multimedia/image121.jpg</text>
<rect x="517.5" y="130" width="90px" height="111px"></rect>
<text x="787.5" y="140" font-size="7" >Alejandra Pendragon Arturez</text>
<text x="787.5" y="148" font-size="6" >Nacimiento:1915-12-24</text>
<text x="787.5" y="156" font-size="6" >Lastras de Cuellar, Segovia</text>
<text x="787.5" y="164" font-size="6" >-4.110044995699699</text>
<text x="787.5" y="172" font-size="6" >41.293634596741335</text>
<text x="787.5" y="180" font-size="6" >903</text>
<text x="787.5" y="188" font-size="6" >Fallecimiento:1967-01-16</text>
<text x="787.5" y="196" font-size="6" >Cuellar, Segovia</text>
<text x="787.5" y="204" font-size="6" >-4.317549797589234</text>
<text x="787.5" y="212" font-size="6" >41.40000222912337</text>
<text x="787.5" y="220" font-size="6" >852</text>
<text x="787.5" y="228" font-size="6" >Multimedia:</text>
<text x="787.5" y="236" font-size="6" >multimedia/image122.jpg</text>
<rect x="742.5" y="130" width="90px" height="111px"></rect>
<text x="1350.0" y="420" font-size="7" >Camila Vega Carbone</text>
<text x="1350.0" y="428" font-size="6" >Nacimiento:1975-06-15</text>
<text x="1350.0" y="436" font-size="6" >Badalona,Barcelona</text>
<text x="1350.0" y="444" font-size="6" >2.238060495548925</text>
<text x="1350.0" y="452" font-size="6" >41.464645869229706</text>
<text x="1350.0" y="460" font-size="6" >27</text>
<text x="1350.0" y="468" font-size="6" >Multimedia:</text>
<text x="1350.0" y="476" font-size="6" >multimedia/image2.jpg</text>
<rect x="1305.0" y="410" width="90px" height="71px"></rect>
<text x="1125.0" y="280" font-size="7" >Adolfo Vega Suarez</text>
<text x="1125.0" y="288" font-size="6" >Nacimiento:1932-11-21</text>
<text x="1125.0" y="296" font-size="6" >Trinidad, Uruguay</text>
<text x="1125.0" y="304" font-size="6" >-56.91285028841446</text>
<text x="1125.0" y="312" font-size="6" >-33.51852807015989</text>
<text x="1125.0" y="320" font-size="6" >141</text>
<text x="1125.0" y="328" font-size="6" >Fallecimiento:2020-06-08</text>
<text x="1125.0" y="336" font-size="6" >Seul,Corea del Sur</text>
<text x="1125.0" y="344" font-size="6" >126.97996214126253</text>
<text x="1125.0" y="352" font-size="6" >37.56877715936732</text>
<text x="1125.0" y="360" font-size="6" >12</text>
<text x="1125.0" y="368" font-size="6" >Multimedia:</text>
<text x="1125.0" y="376" font-size="6" >multimedia/image21.jpg</text>
<rect x="1080.0" y="270" width="90px" height="111px"></rect>
<text x="1012.5" y="140" font-size="7" >Diamantino Vega Delgado</text>
<text x="1012.5" y="148" font-size="6" >Nacimiento:1906-04-18</text>
<text x="1012.5" y="156" font-size="6" >Haro, La Rioja</text>
<text x="1012.5" y="164" font-size="6" >-2.8465975526754232</text>
<text x="1012.5" y="172" font-size="6" >42.58532867599524</text>
<text x="1012.5" y="180" font-size="6" >472</text>
<text x="1012.5" y="188" font-size="6" >Fallecimiento:1956-10-11</text>
<text x="1012.5" y="196" font-size="6" >Miranda del Ebro, Burgos</text>
<text x="1012.5" y="204" font-size="6" >-2.9342701669245717</text>
<text x="1012.5" y="212" font-size="6" >42.68702431631258</text>
<text x="1012.5" y="220" font-size="6" >472</text>
<text x="1012.5" y="228" font-size="6" >Multimedia:</text>
<text x="1012.5" y="236" font-size="6" >multimedia/image211.jpg</text>
<rect x="967.5" y="130" width="90px" height="111px"></rect>
<text x="1237.5" y="140" font-size="7" >Helena Suarez Cabrero</text>
<text x="1237.5" y="148" font-size="6" >Nacimiento:1908-09-09</text>
<text x="1237.5" y="156" font-size="6" >Rivabellosa, Ávala</text>
<text x="1237.5" y="164" font-size="6" >-2.9012543200279444</text>
<text x="1237.5" y="172" font-size="6" >42.714266593756115</text>
<text x="1237.5" y="180" font-size="6" >487</text>
<text x="1237.5" y="188" font-size="6" >Fallecimiento:1932-11-21</text>
<text x="1237.5" y="196" font-size="6" >Miranda del Ebro, Burgos</text>
<text x="1237.5" y="204" font-size="6" >-2.9342701669245717</text>
<text x="1237.5" y="212" font-size="6" >42.68702431631258</text>
<text x="1237.5" y="220" font-size="6" >472</text>
<text x="1237.5" y="228" font-size="6" >Multimedia:</text>
<text x="1237.5" y="236" font-size="6" >multimedia/image212.jpg</text>
<rect x="1192.5" y="130" width="90px" height="111px"></rect>
<text x="1575.0" y="280" font-size="7" >Ana Carbone Benitez</text>
<text x="1575.0" y="288" font-size="6" >Nacimiento:1930-08-14</text>
<text x="1575.0" y="296" font-size="6" >Canguçu,Río Grande del Sur,Brasil</text>
<text x="1575.0" y="304" font-size="6" >-52.67595195186193</text>
<text x="1575.0" y="312" font-size="6" >-31.399024108806675</text>
<text x="1575.0" y="320" font-size="6" >407</text>
<text x="1575.0" y="328" font-size="6" >Fallecimiento:2008-06-02</text>
<text x="1575.0" y="336" font-size="6" >Colloto, Asturias</text>
<text x="1575.0" y="344" font-size="6" >-5.799744873048418</text>
<text x="1575.0" y="352" font-size="6" >43.37871749648649</text>
<text x="1575.0" y="360" font-size="6" >183</text>
<text x="1575.0" y="368" font-size="6" >Multimedia:</text>
<text x="1575.0" y="376" font-size="6" >multimedia/image22.jpg</text>
<rect x="1530.0" y="270" width="90px" height="111px"></rect>
<text x="1462.5" y="140" font-size="7" >Benito Carbone Silva</text>
<text x="1462.5" y="148" font-size="6" >Nacimiento:1903-04-05</text>
<text x="1462.5" y="156" font-size="6" >El Encinar, Salamanca</text>
<text x="1462.5" y="164" font-size="6" >-5.583938750921723</text>
<text x="1462.5" y="172" font-size="6" >40.8838501132761</text>
<text x="1462.5" y="180" font-size="6" >864</text>
<text x="1462.5" y="188" font-size="6" >Fallecimiento:1936-11-07</text>
<text x="1462.5" y="196" font-size="6" >Salamanca, Salamanca</text>
<text x="1462.5" y="204" font-size="6" >-5.660368641176782</text>
<text x="1462.5" y="212" font-size="6" >40.96903408456835</text>
<text x="1462.5" y="220" font-size="6" >788</text>
<text x="1462.5" y="228" font-size="6" >Multimedia:</text>
<text x="1462.5" y="236" font-size="6" >multimedia/image221.jpg</text>
<rect x="1417.5" y="130" width="90px" height="111px"></rect>
<text x="1687.5" y="140" font-size="7" >Esther Benitez Casillas</text>
<text x="1687.5" y="148" font-size="6" >Nacimiento:1906-02-28</text>
<text x="1687.5" y="156" font-size="6" >Mozárbez,Salamanca</text>
<text x="1687.5" y="164" font-size="6" >-5.659126436438319</text>
<text x="1687.5" y="172" font-size="6" >40.861264102103505</text>
<text x="1687.5" y="180" font-size="6" >877</text>
<text x="1687.5" y="188" font-size="6" >Fallecimiento:1975-06-15</text>
<text x="1687.5" y="196" font-size="6" >Carbajosa de la Sagrada, Salamanca</text>
<text x="1687.5" y="204" font-size="6" >-5.647563614311447</text>
<text x="1687.5" y="212" font-size="6" >40.93080200601295</text>
<text x="1687.5" y="220" font-size="6" >794</text>
<text x="1687.5" y="228" font-size="6" >Multimedia:</text>
<text x="1687.5" y="236" font-size="6" >multimedia/image222.jpg</text>
<rect x="1642.5" y="130" width="90px" height="111px"></rect>
<line x1="900px" y1="550px" x2="450.0px" y2="482px" stroke="black" />
<line x1="450.0px" y1="410px" x2="225.0px" y2="342px" stroke="black" />
<line x1="225.0px" y1="270px" x2="112.5px" y2="242px" stroke="black" />
<line x1="225.0px" y1="270px" x2="337.5px" y2="242px" stroke="black" />
<line x1="450.0px" y1="410px" x2="675.0px" y2="342px" stroke="black" />
<line x1="675.0px" y1="270px" x2="562.5px" y2="242px" stroke="black" />
<line x1="675.0px" y1="270px" x2="787.5px" y2="242px" stroke="black" />
<line x1="900px" y1="550px" x2="1350.0px" y2="482px" stroke="black" />
<line x1="1350.0px" y1="410px" x2="1125.0px" y2="382px" stroke="black" />
<line x1="1125.0px" y1="270px" x2="1012.5px" y2="242px" stroke="black" />
<line x1="1125.0px" y1="270px" x2="1237.5px" y2="242px" stroke="black" />
<line x1="1350.0px" y1="410px" x2="1575.0px" y2="382px" stroke="black" />
<line x1="1575.0px" y1="270px" x2="1462.5px" y2="242px" stroke="black" />
<line x1="1575.0px" y1="270px" x2="1687.5px" y2="242px" stroke="black" />
</svg>